<svg id="Capa_1" data-name="Capa 1" xmlns="http://www.w3.org/2000/svg" viewBox="0 0 106.46 106.46"><defs><style>.cls-1{fill:#e94e1a;}.cls-2,.cls-3{fill:#fff;}.cls-3{font-size:11.77px;font-family:MyriadPro-Bold, Myriad Pro;font-weight:700;}.cls-4{letter-spacing:0em;}.cls-5{letter-spacing:-0.01em;}</style></defs><rect class="cls-1" width="106.46" height="106.46" rx="24"/><path class="cls-2" d="M36.64,16.07c-.31-2.31,0-2.7,2.12-2.7H67.69c.44,0,1.07-.12,1.28.11a4.22,4.22,0,0,1,1,1.85c0,.2-.74.84-1.14.84-10.53,0-21.05,0-31.58,0A3.09,3.09,0,0,1,36.64,16.07Z"/><path class="cls-2" d="M36.65,17.81H69.72c.55,2.24.16,2.75-2,2.76H38.76C36.63,20.57,36.35,20.21,36.65,17.81Z"/><path class="cls-2" d="M69.2,22.12H37.27s-4,5.07-4,6.87v41.5c0,1.8,1.78,3.26,4,3.26H69.2c2.19,0,4-1.46,4-3.26V29C73.17,27.19,69.2,22.12,69.2,22.12ZM55.43,45.39c-1.67-4.57,1.59-8.76,7.45-9.67C64.65,40,61.54,44.11,55.43,45.39Zm-4.5,16.93c-4.5-1-6.87-2.41-7.69-5.93a19.14,19.14,0,0,1,0-4c1.56.56,2.82.94,4,1.46A6.72,6.72,0,0,1,50.93,62.32ZM43.4,44.22c6.16,1,9,5.07,7.48,9.78-1.38-.5-2.71-.9-4-1.48A6.71,6.71,0,0,1,43.4,44.22Zm7.44,1.28C49.5,45,48.2,44.63,47,44.08a6.58,6.58,0,0,1-3.49-8.37C49.43,36.79,52.63,40.93,50.84,45.5Zm3.29,21.9a5.93,5.93,0,0,1-.86.78,3.41,3.41,0,0,1-.79-.83,2.49,2.49,0,0,1,0-1q0-5.92,0-11.85h0V42.89a2.21,2.21,0,0,1,0-.89,8.32,8.32,0,0,1,.81-1.22c.31.42.63.85.93,1.28.05.06,0,.16,0,.25,0,9.67,0,14.8,0,24.46C54.17,67,54.26,67.24,54.13,67.4Zm-.58-28c-1.7-2.37-3.65-4.55-3.12-7.77A6.77,6.77,0,0,1,53.34,27c1.86,2.56,3.92,4.94,3,8.41A6.52,6.52,0,0,1,53.55,39.38Zm1.93,23c-1.83-4.44,1.32-8.55,7.41-9.79C64.55,57,62.08,60.32,55.48,62.43Zm0-8.48c-1.86-4.41,1.42-8.68,7.41-9.78C64.57,48.53,62.05,51.89,55.48,54Z"/><text class="cls-3" transform="translate(35.82 95.42)"><tspan class="cls-4">G</tspan><tspan class="cls-5" x="8.06" y="0">r</tspan><tspan x="12.41" y="0">anel</tspan></text></svg>