<svg id="Capa_1" data-name="Capa 1" xmlns="http://www.w3.org/2000/svg" viewBox="0 0 106.46 106.46"><defs><style>.cls-1{fill:#e94e1a;}.cls-2{font-size:11.77px;font-family:MyriadPro-Bold, Myriad Pro;font-weight:700;}.cls-2,.cls-5{fill:#fff;}.cls-3{letter-spacing:-0.01em;}.cls-4{letter-spacing:-0.01em;}</style></defs><rect class="cls-1" width="106.46" height="106.46" rx="24"/><text class="cls-2" transform="translate(26.58 95.42)"><tspan class="cls-3">A</tspan><tspan class="cls-4" x="7.56" y="0">cc</tspan><tspan x="17.92" y="0">esorios</tspan></text><path class="cls-5" d="M77.45,53.91a2.06,2.06,0,0,0-2-1.94,1.24,1.24,0,0,0-1.29,1.3c0,.5-3.46,1.38-5,1.76V51.92H22.47v3.24c-1.09-.26-5.59-1.32-5.59-1.89a1.24,1.24,0,0,0-1.3-1.3,2.06,2.06,0,0,0-1.94,1.94c0,.94,6.75,7,8.83,8.9V74.1a3.74,3.74,0,0,0,3.65,3.66h39.2a4.36,4.36,0,0,0,3.85-3.85V62.32C71.68,60.06,77.45,54.78,77.45,53.91Z"/><path class="cls-5" d="M69.17,49.66v-2s-6.15-6-23.77-6S22.47,47.6,22.47,47.6v2.06h46.7Z"/><path class="cls-5" d="M52.17,39.92V36.64H39.36v3.28s4.07-.3,6.11-.3S52.17,39.92,52.17,39.92Z"/><path class="cls-5" d="M64.43,29.4H84.08c.5,0,.91-.87.91-1.95s-.41-1.95-.91-1.95H64.43c-.5,0-.9.87-.9,1.95S63.93,29.4,64.43,29.4Z"/><path class="cls-5" d="M87,36.94V31.16H56.66s1.05,4.92,4.9,6.39v4.08s9.78,2.31,9.78,6.38v4.65A9.24,9.24,0,0,0,72.86,52c.73-.42,1.34-1.41,3-1.41a3.16,3.16,0,0,1,3.09,2.55,3.84,3.84,0,0,1-.24,2.07L71.2,63.36v8.69H87V57.51c1.91-.1,4.63-1.15,4.91-3.3,0-.13,1.62-12.38,1.62-14C93.52,37.3,88.09,37,87,36.94ZM89.2,53.83a3.31,3.31,0,0,1-2.21.94V39.67a9.26,9.26,0,0,1,3.79.81C90.66,42.36,89.49,51.68,89.2,53.83Z"/></svg>