<svg id="Capa_1" data-name="Capa 1" xmlns="http://www.w3.org/2000/svg" viewBox="0 0 106.46 106.46"><defs><style>.cls-1{fill:#e94e1a;}.cls-2{font-size:11.77px;font-family:MyriadPro-Bold, Myriad Pro;font-weight:700;}.cls-2,.cls-5{fill:#fff;}.cls-3{letter-spacing:0em;}.cls-4{letter-spacing:-0.01em;}</style></defs><rect class="cls-1" width="106.46" height="106.46" rx="24"/><text class="cls-2" transform="translate(28.08 95.42)"><tspan class="cls-3">J</tspan><tspan x="4.78" y="0">a</tspan><tspan class="cls-4" x="11" y="0">r</tspan><tspan x="15.37" y="0">dinería</tspan></text><path class="cls-5" d="M73.18,58.55A25.3,25.3,0,0,0,61.91,64c-2.9,2.52-4.5,3.49-6.49,7.08V44.86h.9a17.47,17.47,0,0,0,6.77-1.38c3.6-1.54,6.94-4.62,6.76-10.17-.08-2.4,0-11.61,0-14a8.87,8.87,0,0,0-.24-1.93c-.28-1.12-.86-1.33-1.78-.62a19,19,0,0,0-1.88,1.71c-1.71,1.69-3.4,3.39-5.11,5.11L60.29,23l-5.14-5.76C54,16,53,16,51.89,17.28l-2.54,2.86-3.11,3.49c-.34-.37-.61-.7-.91-1-1.93-1.91-3.83-3.85-5.82-5.69-1.12-1-1.84-.72-2.11.79a4.86,4.86,0,0,0-.12.84c0,3.2-.09,13.2,0,16.39a8.49,8.49,0,0,0,2.14,5.25,13,13,0,0,0,7.65,4.23c1.48.3,3,.38,4.57.57V71.06c-.25-.41-.37-.65-.53-.87-2.5-3.55-5.57-6.27-10.77-9.3-2.79-1.63-8.9-2.94-11-3.28a17.85,17.85,0,0,0-5.06-.38C27.76,64.34,34.07,72.59,40.53,77a23.06,23.06,0,0,0,10.69,4.17c6.33.63,11.9-1.45,16.86-5.27,5.15-4,9.21-10.1,12.15-15.83.28-.54.87-2,1.15-2.55A25.33,25.33,0,0,0,73.18,58.55Zm-37,7.23c11,3.11,15,11.42,15,11.42A28.29,28.29,0,0,1,36.17,65.78ZM55.92,77.2s3.91-8.31,15-11.42A28.23,28.23,0,0,1,55.92,77.2Z"/></svg>