<svg id="Capa_1" data-name="Capa 1" xmlns="http://www.w3.org/2000/svg" viewBox="0 0 106.46 106.46"><defs><style>.cls-1{fill:#e94e1a;}.cls-2,.cls-3{fill:#fff;}.cls-3{font-size:11.77px;font-family:MyriadPro-Bold, Myriad Pro;font-weight:700;}.cls-4{letter-spacing:-0.01em;}.cls-5{letter-spacing:-0.01em;}.cls-6{letter-spacing:0em;}</style></defs><rect class="cls-1" width="106.46" height="106.46" rx="24"/><path class="cls-2" d="M63.79,74.62C57.57,74.5,52.43,73.5,48,70.3a15.21,15.21,0,0,1-3.85-3.78,12.35,12.35,0,0,0-7.51-5.17,26.3,26.3,0,0,0-4.77-.73,9,9,0,0,1-6.28-2.88,5.65,5.65,0,0,1-1.39-4.36,10.7,10.7,0,0,0,.12-2.71c-.08-4.52,2.07-7.46,6.43-8.5,8.68-2.08,17.45-3.23,26.39-2.42,6.5.58,12.68,2.17,17.93,6.32,4.53,3.59,7.23,8.18,7.29,14.09,0,2.83-.1.46-.17,3.29A8,8,0,0,1,79.36,69c-3,2.94-6.73,4.32-10.75,5C66.75,74.39,64.85,74.5,63.79,74.62ZM49.36,40.28c-2.39.16-6.67.8-10.27,1.16-3.31.33-7.74.86-10.63,2.61s-2.6,5.55,0,7.67a9.18,9.18,0,0,0,5.64,1.77c5.69-.08,9.93,2.66,13.44,6.82A13.93,13.93,0,0,0,52.23,64c8.57,4,16.7,2.37,24.48-2.15,2.45-1.42,4.36-4.3,3.4-6.86a21.65,21.65,0,0,0-2.28-4.66c-3.38-4.45-8.55-7.13-13.91-8.68C59.36,40.37,55.28,40.66,49.36,40.28Z"/><path class="cls-2" d="M70.22,61.66c-4,0-7.38-1-10-3.9a11.47,11.47,0,0,1-1.76-2.91c-1.26-2.77-3-5-6.06-5.9a5.16,5.16,0,0,1-2.22-1.67c-1.28-1.51-.74-3.26,1.11-4a10.74,10.74,0,0,1,5.84-.17A43.83,43.83,0,0,1,69,47.08a13.91,13.91,0,0,1,7.22,8.37c1.14,3.44,0,5.41-3.6,6C71.77,61.58,70.9,61.6,70.22,61.66Z"/><path class="cls-2" d="M40.7,42.78a40.18,40.18,0,0,1,4.78,1.49,4.19,4.19,0,0,1,2.42,5.37,5,5,0,0,1-5.38,3.3c-.35-.06-.69-.15-1-.24l-7-1.82c-.5-.12-1-.23-1.48-.39-1-.33-1.91-.83-2.06-2a2.79,2.79,0,0,1,1.46-2.88A19.8,19.8,0,0,1,40.7,42.78Z"/><path class="cls-2" d="M47.06,54.6c0-2.22.83-3.24,2.6-3.22a12.53,12.53,0,0,1,4.05.58,5.33,5.33,0,0,1,3.63,4.16,5.08,5.08,0,0,0,2.88,3.93,1.77,1.77,0,0,1,.84.63c.28.56.7,1.29.55,1.78a2.26,2.26,0,0,1-1.46,1.27,5,5,0,0,1-2.66-.2,45.14,45.14,0,0,1-6.64-3A7.93,7.93,0,0,1,47.06,54.6Z"/><path class="cls-2" d="M48.29,24l-.06-.48a5.08,5.08,0,0,0-.63-1.85,9.75,9.75,0,0,0-1-1.44,8.63,8.63,0,0,1-.8-1.05,4,4,0,0,1-.26-.5,3.27,3.27,0,0,1-.17-.53l-.07-.29,0-.31c0-.2,0-.41,0-.62a3.87,3.87,0,0,1,.16-1.18,5.26,5.26,0,0,1,.56-1.19c.25-.41.55-.87.82-1.37a5.45,5.45,0,0,0,.36-.9,5.3,5.3,0,0,0,.51-2.37.47.47,0,0,0-.48-.48.48.48,0,0,0-.49.48,4.34,4.34,0,0,1-.39,1.91,6.53,6.53,0,0,1-.55.63c-.34.33-.72.65-1.11,1a5.67,5.67,0,0,0-1.47,2.31c0,.15-.07.31-.11.46a2.66,2.66,0,0,0-.09.46,5.81,5.81,0,0,0-.06.93v.46l.06.48a5.58,5.58,0,0,0,.23,1,6.68,6.68,0,0,0,.41.9,10.18,10.18,0,0,0,1,1.43,8.66,8.66,0,0,1,.8,1.06c.11.16.18.33.27.49s.13.34.17.54l.06.28,0,.31c0,.2,0,.41,0,.62a3.83,3.83,0,0,1-.17,1.18,5.07,5.07,0,0,1-.56,1.19c-.25.42-.55.87-.81,1.37a4.61,4.61,0,0,0-.36.89,5.24,5.24,0,0,0-.52,2.38.48.48,0,0,0,.48.49.49.49,0,0,0,.49-.49,4.2,4.2,0,0,1,.4-1.91,5.3,5.3,0,0,1,.54-.63c.34-.33.72-.65,1.11-1a6,6,0,0,0,1.09-1.43,5.27,5.27,0,0,0,.37-.88c0-.15.08-.3.12-.46a3.69,3.69,0,0,0,.08-.46,4.75,4.75,0,0,0,.07-.92Z"/><path class="cls-2" d="M57.16,24l-.06-.48a5.29,5.29,0,0,0-.64-1.85,9.05,9.05,0,0,0-1-1.44,7.87,7.87,0,0,1-.81-1.05,4,4,0,0,1-.26-.5,4.68,4.68,0,0,1-.17-.53l-.07-.29,0-.31a4.21,4.21,0,0,1,0-.62,3.87,3.87,0,0,1,.17-1.18,4.81,4.81,0,0,1,.55-1.19c.26-.41.56-.87.82-1.37a4.7,4.7,0,0,0,.36-.9,5.17,5.17,0,0,0,.52-2.37A.48.48,0,0,0,56,9.46a.47.47,0,0,0-.48.48,4.26,4.26,0,0,1-.4,1.9,4.14,4.14,0,0,1-.55.64c-.33.33-.72.65-1.11,1A6,6,0,0,0,52.36,15a5.65,5.65,0,0,0-.37.88c-.05.15-.08.31-.12.46a4,4,0,0,0-.08.46,4.86,4.86,0,0,0-.07.93v.46l.06.48a4.78,4.78,0,0,0,.23,1,6.64,6.64,0,0,0,.4.9,10.18,10.18,0,0,0,1,1.43,8.66,8.66,0,0,1,.8,1.06,3,3,0,0,1,.27.49,4.26,4.26,0,0,1,.17.54l.07.28,0,.31a4.21,4.21,0,0,1,0,.62,3.83,3.83,0,0,1-.17,1.18,4.65,4.65,0,0,1-.55,1.19c-.25.42-.56.87-.82,1.37a4.61,4.61,0,0,0-.36.89,5.24,5.24,0,0,0-.52,2.38.49.49,0,1,0,1,0,4.33,4.33,0,0,1,.4-1.91,5.3,5.3,0,0,1,.54-.63c.34-.33.72-.65,1.11-1a5.74,5.74,0,0,0,1.09-1.43,5.31,5.31,0,0,0,.38-.88c.05-.15.07-.3.11-.46a2.49,2.49,0,0,0,.09-.46,5.69,5.69,0,0,0,.06-.92Z"/><path class="cls-2" d="M66,24.49V24L66,23.54a5.08,5.08,0,0,0-.63-1.85,9.75,9.75,0,0,0-1-1.44,8.63,8.63,0,0,1-.8-1.05c-.11-.17-.18-.33-.27-.5a4.64,4.64,0,0,1-.16-.53L63,17.88l0-.31c0-.2,0-.41,0-.62a3.87,3.87,0,0,1,.16-1.18,5.26,5.26,0,0,1,.56-1.19c.25-.41.55-.87.82-1.37a5.45,5.45,0,0,0,.36-.9,5.3,5.3,0,0,0,.51-2.37.49.49,0,0,0-1,0,4.26,4.26,0,0,1-.39,1.9,5.62,5.62,0,0,1-.55.64c-.34.33-.72.65-1.11,1a5.67,5.67,0,0,0-1.47,2.31c-.05.15-.07.31-.11.46a2.66,2.66,0,0,0-.09.46,5.81,5.81,0,0,0-.06.93v.46l.06.48a5.58,5.58,0,0,0,.23,1,5.64,5.64,0,0,0,.41.9,11.05,11.05,0,0,0,1,1.43A7.9,7.9,0,0,1,63.12,23a3.87,3.87,0,0,1,.26.49,3.09,3.09,0,0,1,.17.54l.07.28,0,.31c0,.2,0,.41,0,.62a3.83,3.83,0,0,1-.17,1.18A5.07,5.07,0,0,1,63,27.58c-.25.42-.55.87-.82,1.37a6.37,6.37,0,0,0-.36.89,5.38,5.38,0,0,0-.51,2.38.48.48,0,0,0,.48.49.49.49,0,0,0,.49-.49,4.34,4.34,0,0,1,.39-1.91,6.53,6.53,0,0,1,.55-.63c.33-.33.72-.65,1.11-1a6,6,0,0,0,1.09-1.43,6.27,6.27,0,0,0,.37-.88c0-.15.08-.3.12-.46a3.69,3.69,0,0,0,.08-.46A5.7,5.7,0,0,0,66,24.49Z"/><text class="cls-3" transform="translate(23 95.29)"><tspan class="cls-4">C</tspan><tspan x="6.89" y="0">arni</tspan><tspan class="cls-5" x="27.7" y="0">c</tspan><tspan class="cls-6" x="32.88" y="0">ería</tspan></text></svg>