<svg id="Capa_1" data-name="Capa 1" xmlns="http://www.w3.org/2000/svg" viewBox="0 0 106.46 106.46"><defs><style>.cls-1{fill:#e94e1a;}.cls-2,.cls-3{fill:#fff;}.cls-3{font-size:11.77px;font-family:MyriadPro-Bold, Myriad Pro;font-weight:700;}.cls-4{letter-spacing:-0.01em;}.cls-5{letter-spacing:0em;}.cls-6{letter-spacing:-0.01em;}.cls-7{letter-spacing:-0.01em;}</style></defs><rect class="cls-1" width="106.46" height="106.46" rx="24"/><path class="cls-2" d="M44.56,31.62l-3.07-6a2.5,2.5,0,0,0,1.45-2.66c0-.58,0-1.16,0-1.74A2.18,2.18,0,0,0,40.74,19c-3,0-6-.05-9,0a2.72,2.72,0,0,0-1.63.76c-.89.86-.84,4.21,0,5.13a8.16,8.16,0,0,0,.83.71c-.12.26-.22.5-.34.72-1.59,3.18-3.21,6.34-4.76,9.54a6.34,6.34,0,0,0-.73,2.58c-.05,11.44,0,22.88,0,34.32a2.27,2.27,0,0,0,2.57,2.57h17c2,0,2.74-.78,2.74-2.75,0-10.09-.08-20.19,0-30.28,0-3.21-.25-6.23-2-9C45.11,32.8,44.86,32.2,44.56,31.62ZM31.82,21.31h8.85v2.12H31.82Zm4.36,36.77a6.69,6.69,0,1,1,6.75-6.65A6.7,6.7,0,0,1,36.18,58.08Z"/><path class="cls-2" d="M83.45,75.39l-1-2.34c.33-4.34.38-33.34.38-37.69,0-2.82,2.94-4.4,3.07-6.26.09-1.23-.33-1.7-1.57-1.57a6.41,6.41,0,0,0-2.07.55,5.51,5.51,0,0,1-4.63,0,5.58,5.58,0,0,0-5.11,0,4.23,4.23,0,0,1-4,0,5.58,5.58,0,0,0-5.11,0,4.34,4.34,0,0,1-4.07,0,5.61,5.61,0,0,0-5.12,0,4.24,4.24,0,0,1-4.06,0,6,6,0,0,0-5,0l.54,1c1,1.82,2,3.63,2.93,5.46a9.48,9.48,0,0,1,1,4.57q0,15,0,30c0,1.23.11,2.46.17,3.68a1.94,1.94,0,0,1,0,.54c-.2.74-.43,1.48-.64,2.21ZM56.64,65.16a4.21,4.21,0,0,1-2.53-4c0-6.35,0-12.7,0-19a4.92,4.92,0,0,1,.61-2.17,4.36,4.36,0,0,1,5-2.06A4.49,4.49,0,0,1,63,42.19c0,4.05-.26,15-.3,19.88,0,1.8-1,2.23-1,2.23l-.42.32A4.25,4.25,0,0,1,56.64,65.16Zm16.33.6c-2.41,0-4.65-1.93-4.65-3.78h0c0-5,.27-15.82.3-19.88a4.46,4.46,0,0,1,8.91.08c0,1.24,0,10.81-.3,19.29h0C77.16,63.17,75.38,65.76,73,65.76Z"/><path class="cls-2" d="M60.79,42a2.23,2.23,0,0,0-4.46.06v9.4h0c0,3.14,0,6.28,0,9.41a2.24,2.24,0,1,0,4.47,0c0-4.64,0-9.29,0-13.93C60.79,45.29,60.82,43.64,60.79,42Z"/><path class="cls-2" d="M75.2,42a2.23,2.23,0,0,0-4.46.06v9.4h0v9.41a2.23,2.23,0,1,0,4.46,0q0-7,0-13.93C75.2,45.29,75.22,43.64,75.2,42Z"/><path class="cls-2" d="M67,15.81H61.69a3.37,3.37,0,0,0-3.37,3.37v6.26a6.81,6.81,0,0,1,1,.38,4.32,4.32,0,0,0,4.07,0,5.58,5.58,0,0,1,5.11,0,4.44,4.44,0,0,0,1.92.49V19.18A3.37,3.37,0,0,0,67,15.81Z"/><path class="cls-2" d="M74.94,19.1a3.37,3.37,0,0,0-3.37,3.37v3.71a5.87,5.87,0,0,0,.93-.35,5.58,5.58,0,0,1,5.11,0,4.33,4.33,0,0,0,.71.27V22.47A3.37,3.37,0,0,0,74.94,19.1Z"/><path class="cls-2" d="M54.22,21.63A1.12,1.12,0,0,0,53.43,23l.77,2.82h0a5.82,5.82,0,0,1,2.17-.59l-.77-2.81A1.12,1.12,0,0,0,54.22,21.63Z"/><path class="cls-2" d="M50.55,20.8a1.12,1.12,0,0,0-.79,1.38l1.05,3.9a4.18,4.18,0,0,0,2.37.13l-1.25-4.62A1.13,1.13,0,0,0,50.55,20.8Z"/><text class="cls-3" transform="translate(27.16 95.42)"><tspan class="cls-4">A</tspan><tspan class="cls-5" x="7.65" y="0">bar</tspan><tspan class="cls-6" x="25.38" y="0">r</tspan><tspan class="cls-5" x="29.76" y="0">o</tspan><tspan class="cls-7" x="36.55" y="0">t</tspan><tspan x="40.81" y="0">es</tspan></text></svg>