<svg id="Capa_1" data-name="Capa 1" xmlns="http://www.w3.org/2000/svg" viewBox="0 0 106.46 106.46"><defs><style>.cls-1{fill:#e94e1a;}.cls-2,.cls-3{fill:#fff;}.cls-3{font-size:11.77px;font-family:MyriadPro-Bold, Myriad Pro;font-weight:700;letter-spacing:-0.04em;}.cls-4{letter-spacing:-0.02em;}.cls-5{letter-spacing:-0.02em;}.cls-6{letter-spacing:-0.05em;}.cls-7{letter-spacing:-0.06em;}.cls-8{letter-spacing:-0.02em;}.cls-9{letter-spacing:-0.02em;}.cls-10{letter-spacing:-0.03em;}</style></defs><rect class="cls-1" width="106.46" height="106.46" rx="24"/><path class="cls-2" d="M54.41,32.13c1.34-.59,2.48-1,3.54-1.55,7.27-3.84,14.27-2.18,19.11,4.56,3.27,4.56,4.06,9.74,3.63,15.15A38.7,38.7,0,0,1,72.84,71a24.37,24.37,0,0,1-1.69,2c-4.42,4.63-7.86,5.47-13.73,2.91a9.83,9.83,0,0,0-8.49,0c-5.8,2.54-9.39,1.88-13.57-2.87-7.8-8.87-11.22-19.23-9.06-31A16.81,16.81,0,0,1,40.4,28.36a10.27,10.27,0,0,1,6.06,1.16c1.23.61,2.42,1.3,3.67,1.87a18.81,18.81,0,0,0,2.39.7C50.55,26.92,47.85,25,42,21.76l3.1-4.67C51.24,21.88,53.23,25.48,54.41,32.13Z"/><path class="cls-2" d="M71.7,14.16c-.74,1.8-1.31,3.56-2.14,5.18A8.77,8.77,0,0,1,64,23.66a18.9,18.9,0,0,1-3.43.66c-2.48.25-5,.42-7.35,1.61C55.1,17.52,62.12,12.27,71.7,14.16Z"/><text class="cls-3" transform="translate(9.38 95.42)">F<tspan class="cls-4" x="5.79" y="0">r</tspan><tspan class="cls-5" x="10.05" y="0">utas y</tspan><tspan class="cls-6" x="40.04" y="0"> </tspan><tspan class="cls-7" x="41.8" y="0">V</tspan><tspan class="cls-8" x="48.62" y="0">e</tspan><tspan class="cls-9" x="54.66" y="0">r</tspan><tspan class="cls-8" x="58.86" y="0">du</tspan><tspan class="cls-10" x="72.38" y="0">r</tspan><tspan class="cls-5" x="76.55" y="0">as</tspan></text></svg>