<svg id="Capa_1" data-name="Capa 1" xmlns="http://www.w3.org/2000/svg" viewBox="0 0 106.46 106.46"><defs><style>.cls-1{fill:#e94e1a;}.cls-2{font-size:11.77px;font-family:MyriadPro-Bold, Myriad Pro;font-weight:700;}.cls-2,.cls-9{fill:#fff;}.cls-3{letter-spacing:-0.01em;}.cls-4{letter-spacing:0em;}.cls-5{letter-spacing:-0.01em;}.cls-6{letter-spacing:-0.01em;}.cls-7{letter-spacing:0.02em;}.cls-8{letter-spacing:-0.02em;}</style></defs><rect class="cls-1" width="106.46" height="106.46" rx="24"/><text class="cls-2" transform="translate(10.68 95.42)">Li<tspan class="cls-3" x="9.24" y="0">c</tspan><tspan class="cls-4" x="14.42" y="0">o</tspan><tspan class="cls-5" x="21.21" y="0">r</tspan><tspan x="25.59" y="0">e</tspan><tspan class="cls-6" x="31.81" y="0">s</tspan><tspan x="36.8" y="0">, </tspan><tspan class="cls-3" x="42.24" y="0">c</tspan><tspan x="47.42" y="0">e</tspan><tspan class="cls-7" x="53.63" y="0">r</tspan><tspan class="cls-8" x="58.32" y="0">v</tspan><tspan x="64.38" y="0">ezas</tspan></text><path class="cls-9" d="M39.09,6A2,2,0,0,0,37.55,8V28.77c-7.1,6.17-8.87,12.49-8.87,15.89V79.29a4.45,4.45,0,0,0,4.4,4.7h16.6a4.45,4.45,0,0,0,4.39-4.7V44.66c0-3.4-1.77-9.72-8.87-15.89V8A2,2,0,0,0,43.66,6l-.58-.06H39.67Zm-1.16,5.8h6.9v2.71h-6.9ZM52.16,78a3.78,3.78,0,0,1-3.73,4H34.32a3.78,3.78,0,0,1-3.73-4V48.53A9.26,9.26,0,0,1,36.93,46c4,0,6.07,4,9.72,4a9.58,9.58,0,0,0,5.51-1.42Z"/><path class="cls-9" d="M81.05,47.76V80.24H58.51V47.76Z"/><path class="cls-9" d="M59.06,46.76l1.17-2.4H79.34l1.18,2.4Z"/><path class="cls-9" d="M60.21,84.06c-.14-.45-1-1.66-1.18-2.2h21.5c-.14.5-.76,1.69-.9,2.2Z"/><path class="cls-9" d="M69.77,43.37c-3.09,0-6.18,0-9.27,0-.35,0-.6-.17-.6-.45s.27-.46.63-.47q9.27,0,18.54,0c.34,0,.71.06.71.42s-.39.5-.74.5C76,43.39,72.86,43.37,69.77,43.37Z"/><path class="cls-9" d="M70.36,36.33a2.14,2.14,0,0,0-2.14,2.14v3.09h4.29V38.47A2.14,2.14,0,0,0,70.36,36.33Zm0,3.57a1.45,1.45,0,1,1,1.45-1.45A1.45,1.45,0,0,1,70.39,39.9Z"/></svg>