<svg id="Capa_1" data-name="Capa 1" xmlns="http://www.w3.org/2000/svg" viewBox="0 0 106.46 106.46"><defs><style>.cls-1{fill:#e94e1a;}.cls-2{font-size:11.77px;font-family:MyriadPro-Bold, Myriad Pro;font-weight:700;letter-spacing:-0.02em;}.cls-2,.cls-4{fill:#fff;}.cls-3{letter-spacing:0em;}</style></defs><rect class="cls-1" width="106.46" height="106.46" rx="24"/><text class="cls-2" transform="translate(27.71 95.42)">P<tspan class="cls-3" x="6.63" y="0">anadería</tspan></text><path class="cls-4" d="M57.31,16.87,17,57.18c-2.66,2.66-4.57,8.89-1.91,11.55h0c2.67,2.66,8.06,1.59,11.56-1.91L67,26.52c4-4,4.57-8.89,1.91-11.56h0C66.2,12.3,61.68,12.5,57.31,16.87ZM19.45,67.5s-.11-7.62,2.48-10.21c0,0-.09,1.82-.41,4C21.17,63.64,20.54,66.41,19.45,67.5ZM26,64.24s-.21-13.16,4.27-17.64c0,0-.16,3.15-.7,6.85C28.93,57.56,27.85,62.36,26,64.24Zm9.52-9.52s-.2-13.17,4.28-17.64c0,0-.16,3.14-.71,6.84C38.46,48,37.37,52.84,35.49,54.72ZM45,45.19S44.81,32,49.29,27.55c0,0-.16,3.15-.7,6.85C48,38.52,46.9,43.31,45,45.19Zm8.76-8.75s-.21-13.17,4.27-17.65c0,0-.16,3.15-.7,6.85C56.74,29.76,55.66,34.55,53.78,36.44Zm10.82-17c-.35,2.39-1,5.16-2.07,6.25,0,0-.11-7.62,2.48-10.21C65,15.5,64.92,17.32,64.6,19.46Z"/><path class="cls-4" d="M55.35,62.71a10.38,10.38,0,0,0,.21-11.66c.82-.2,1.59-.41,2.38-.57s1.65-.29,2.49-.38a1.56,1.56,0,0,1,1,.16A10.34,10.34,0,0,1,66,56.53a11.78,11.78,0,0,1-.16,6.26,9.54,9.54,0,0,0,1.89-6.52A10.87,10.87,0,0,0,65,49.79c.91,0,1.68,0,2.44,0,1.29.09,2.58.24,3.86.4a2,2,0,0,1,1,.35,10.44,10.44,0,0,1,4.28,10.37c-.08.59-.23,1.18-.27,1.78a9.94,9.94,0,0,0,1.82-5.47,13,13,0,0,0-1.27-5.73c.43.12.88.23,1.3.38a29.54,29.54,0,0,1,8.72,4.86A11.19,11.19,0,0,1,91,62.6a5.92,5.92,0,0,1-1.88,6.25,10.26,10.26,0,0,1-5.51,2.43,38.35,38.35,0,0,1-5.46.39c-8.58,0-17.16,0-25.73,0A22.86,22.86,0,0,1,46.26,71a10.87,10.87,0,0,1-4.13-2,6.34,6.34,0,0,1-1.59-7.87,12.1,12.1,0,0,1,3-3.93,28.6,28.6,0,0,1,8.82-5.17.76.76,0,0,1,1,.29,10.51,10.51,0,0,1,2.06,9.84A4.34,4.34,0,0,0,55.35,62.71Z"/></svg>