<svg id="Capa_1" data-name="Capa 1" xmlns="http://www.w3.org/2000/svg" viewBox="0 0 148.62 24.89"><defs><style>.cls-1,.cls-5{font-size:12px;}.cls-1,.cls-5,.cls-8{fill:#e5e5e5;}.cls-1{font-family:MyriadPro-Regular, Myriad Pro;}.cls-2{letter-spacing:0em;}.cls-3{letter-spacing:0em;}.cls-4{letter-spacing:-0.01em;}.cls-5{font-family:MyriadPro-Bold, Myriad Pro;font-weight:700;}.cls-6{letter-spacing:0em;}.cls-7{letter-spacing:-0.01em;}</style></defs><text class="cls-1" transform="translate(0 21.89)"><tspan class="cls-2">D</tspan><tspan x="8.04" y="0">escue</tspan><tspan class="cls-3" x="36.8" y="0">n</tspan><tspan class="cls-4" x="43.42" y="0">t</tspan><tspan x="47.32" y="0">os y Noticias</tspan></text><text class="cls-5" transform="translate(45.75 10.04)">¡Suscrí<tspan class="cls-6" x="35.16" y="0">b</tspan><tspan x="42.37" y="0">e</tspan><tspan class="cls-7" x="48.71" y="0">t</tspan><tspan x="53.05" y="0">e!</tspan></text><path class="cls-8" d="M131.28,15.45,116.55,1.77a5.47,5.47,0,0,1,2.14-1A6.15,6.15,0,0,1,120,.63h22.49A6,6,0,0,1,146,1.76Z"/><path class="cls-8" d="M116.55,22.89l9.89-9.18,4.84,4.49,4.84-4.49L146,22.89a5.38,5.38,0,0,1-2.25,1,6.58,6.58,0,0,1-1.32.14H120.11a6.11,6.11,0,0,1-3.27-.95Z"/><path class="cls-8" d="M137.6,12.33l9.84-9.14a5.91,5.91,0,0,1,1.08,2.56,8.89,8.89,0,0,1,.1,1.36V17.55a6.47,6.47,0,0,1-1,3.63,2.14,2.14,0,0,1-.13.19.37.37,0,0,1-.09.09Z"/><path class="cls-8" d="M115.14,3.2,125,12.33l-9.84,9.14a5.57,5.57,0,0,1-1.05-2.42,8.08,8.08,0,0,1-.13-1.39q0-5.38,0-10.77a6.19,6.19,0,0,1,.92-3.32l.18-.28Z"/></svg>