<svg id="Capa_1" data-name="Capa 1" xmlns="http://www.w3.org/2000/svg" viewBox="0 0 111.62 24.87"><defs><style>.cls-1,.cls-2{font-size:12px;fill:#e5e5e5;}.cls-1{font-family:MyriadPro-Bold, Myriad Pro;font-weight:700;}.cls-2{font-family:MyriadPro-Regular, Myriad Pro;}.cls-3{letter-spacing:-0.01em;}.cls-4{letter-spacing:0em;}.cls-5{letter-spacing:0.01em;}.cls-6{letter-spacing:-0.01em;}.cls-7{fill:#fcfefd;}.cls-8{fill:#1cd641;}</style></defs><text class="cls-1" transform="translate(0 21.87)">+506 8939 5313</text><text class="cls-2" transform="translate(20.07 10.04)"><tspan class="cls-3">C</tspan><tspan x="6.83" y="0">o</tspan><tspan class="cls-4" x="13.42" y="0">n</tspan><tspan x="20.03" y="0">tรก</tspan><tspan class="cls-5" x="29.78" y="0">c</tspan><tspan class="cls-6" x="35.32" y="0">t</tspan><tspan x="39.22" y="0">enos:</tspan></text><path class="cls-7" d="M89.82,24l1.06-3.78c.13-.48.26-1,.41-1.43a.47.47,0,0,0-.05-.4,10.87,10.87,0,0,1,.58-11.56,10.85,10.85,0,0,1,5.4-4,10.29,10.29,0,0,1,5.3-.43,10.68,10.68,0,0,1,8.21,6.47,10.14,10.14,0,0,1,.71,6,10.49,10.49,0,0,1-5.51,7.74,10.52,10.52,0,0,1-10.11.17,1.12,1.12,0,0,0-.86-.09C93.27,23.1,91.57,23.53,89.82,24Zm20-10.69a10.27,10.27,0,0,0-.58-3.39,9,9,0,0,0-17.42,2A8.92,8.92,0,0,0,93.2,18a.53.53,0,0,1,.07.5c-.25.86-.47,1.72-.73,2.57-.08.27,0,.26.22.21l2.61-.68a.69.69,0,0,1,.59.08,8.9,8.9,0,0,0,7.42,1A9,9,0,0,0,109.77,13.29Z"/><path class="cls-8" d="M109.77,13.29a9,9,0,0,1-6.39,8.38,8.9,8.9,0,0,1-7.42-1,.69.69,0,0,0-.59-.08l-2.61.68c-.22.05-.3.06-.22-.21.26-.85.48-1.71.73-2.57a.53.53,0,0,0-.07-.5,8.92,8.92,0,0,1-1.43-6.11,9,9,0,0,1,17.42-2A10.27,10.27,0,0,1,109.77,13.29ZM97.24,8a1.06,1.06,0,0,0-.92.22,3,3,0,0,0-1,3.12,7.06,7.06,0,0,0,1.44,2.75,11.37,11.37,0,0,0,5.78,4A2.69,2.69,0,0,0,106.24,16a.49.49,0,0,0-.3-.63c-.73-.32-1.44-.65-2.15-1a.45.45,0,0,0-.63.16c-.26.35-.53.69-.8,1a.34.34,0,0,1-.42.15,7.26,7.26,0,0,1-3.86-3.27.38.38,0,0,1,.06-.49c.24-.27.46-.55.7-.8a.58.58,0,0,0,.11-.7c-.27-.6-.55-1.19-.77-1.81S97.75,7.85,97.24,8Z"/><path class="cls-7" d="M97.24,8c.51-.12.76.17.94.66s.5,1.21.77,1.81a.58.58,0,0,1-.11.7c-.24.25-.46.53-.7.8a.38.38,0,0,0-.06.49,7.26,7.26,0,0,0,3.86,3.27.34.34,0,0,0,.42-.15c.27-.34.54-.68.8-1a.45.45,0,0,1,.63-.16c.71.34,1.42.67,2.15,1a.49.49,0,0,1,.3.63,2.69,2.69,0,0,1-3.69,2.11,11.37,11.37,0,0,1-5.78-4,7.06,7.06,0,0,1-1.44-2.75,3,3,0,0,1,1-3.12A1.06,1.06,0,0,1,97.24,8Z"/></svg>